<svg width="65" height="136" viewBox="0 0 65 136" fill="none" xmlns="http://www.w3.org/2000/svg">
<path d="M20.6279 96.952C16.6705 89.7263 14.5434 83.0946 14.2466 77.0568C14.2466 73.9884 15.2359 71.1179 17.2146 68.4454C19.1933 65.7729 21.6667 63.2489 24.6347 60.8734C27.6027 58.4978 31.758 55.5284 37.1005 51.9651L42.4429 48.2533C42.8387 47.2635 43.2839 45.6798 43.7785 43.5022C44.3721 41.3246 44.6689 39.1965 44.6689 37.1179C44.6689 33.0597 43.5312 29.1994 41.2557 25.5371C38.9802 21.8748 35.567 18.9054 31.016 16.6288C26.465 14.3523 20.8752 13.214 14.2466 13.214C10.1903 13.214 6.48021 14.0553 3.11644 15.738L0 4.00873C1.97869 2.91995 4.89726 1.97963 8.75571 1.18778C12.7131 0.395925 17.1157 0 21.9635 0C31.758 0 39.8706 1.63319 46.3014 4.89957C52.8311 8.06696 57.5799 12.3231 60.5479 17.6681C63.516 23.0131 65 28.952 65 35.4847C65 40.3348 64.0107 44.5415 62.032 48.1048C60.0533 51.6681 57.6788 54.5881 54.9087 56.8646C52.2374 59.1412 48.7747 61.6157 44.5205 64.2882C41.4536 66.2678 39.0297 67.9505 37.2489 69.3362C35.468 70.722 34.0335 72.2067 32.9452 73.7904C32.4505 75.2751 32.2527 76.7598 32.3516 78.2445C32.3516 86.064 32.7473 92.2999 33.5388 96.952H20.6279ZM24.6347 136C21.5677 136 18.8965 134.961 16.621 132.882C14.3455 130.803 13.2078 128.131 13.2078 124.865C13.2078 121.301 14.5434 118.332 17.2146 115.956C19.8858 113.581 23.0518 112.393 26.7123 112.393C30.3729 112.393 33.242 113.531 35.3196 115.808C37.4962 117.985 38.5845 120.608 38.5845 123.677C38.5845 127.438 37.2489 130.457 34.5776 132.734C32.0053 134.911 28.691 136 24.6347 136Z" fill="#F8EEF6"/>
</svg>
