<svg width="89" height="185" viewBox="0 0 89 185" fill="none" xmlns="http://www.w3.org/2000/svg">
<path d="M28.4792 131.517C23.1459 121.784 20.2792 112.851 19.8792 104.717C19.8792 100.584 21.2125 96.7175 23.8792 93.1175C26.5459 89.5175 29.8792 86.1175 33.8792 82.9175C37.8792 79.7175 43.4792 75.7175 50.6792 70.9175L57.8792 65.9175C58.4125 64.5842 59.0125 62.4508 59.6792 59.5175C60.4792 56.5842 60.8792 53.7175 60.8792 50.9175C60.8792 45.4508 59.3459 40.2508 56.2792 35.3175C53.2125 30.3842 48.6125 26.3842 42.4792 23.3175C36.3459 20.2508 28.8125 18.7175 19.8792 18.7175C14.4125 18.7175 9.41253 19.8508 4.8792 22.1175L0.679199 6.31748C3.34587 4.85082 7.2792 3.58415 12.4792 2.51748C17.8125 1.45081 23.7459 0.91748 30.2792 0.91748C43.4792 0.91748 54.4125 3.11748 63.0792 7.51749C71.8792 11.7842 78.2792 17.5175 82.2792 24.7175C86.2792 31.9175 88.2792 39.9175 88.2792 48.7175C88.2792 55.2508 86.9459 60.9175 84.2792 65.7175C81.6125 70.5175 78.4125 74.4508 74.6792 77.5175C71.0792 80.5842 66.4125 83.9175 60.6792 87.5175C56.5459 90.1842 53.2792 92.4508 50.8792 94.3175C48.4792 96.1842 46.5459 98.1842 45.0792 100.317C44.4125 102.317 44.1459 104.317 44.2792 106.317C44.2792 116.851 44.8125 125.251 45.8792 131.517H28.4792ZM33.8792 184.117C29.7459 184.117 26.1459 182.717 23.0792 179.917C20.0125 177.117 18.4792 173.517 18.4792 169.117C18.4792 164.317 20.2792 160.317 23.8792 157.117C27.4792 153.917 31.7459 152.317 36.6792 152.317C41.6125 152.317 45.4792 153.851 48.2792 156.917C51.2125 159.851 52.6792 163.384 52.6792 167.517C52.6792 172.584 50.8792 176.651 47.2792 179.717C43.8125 182.651 39.3459 184.117 33.8792 184.117Z" fill="#F8EEF6"/>
</svg>
