<svg width="16" height="16" viewBox="0 0 16 16" fill="none" xmlns="http://www.w3.org/2000/svg">
<path d="M2.7179 10.922C2.1133 11.1453 2.71789 12.5336 3.62864 12.4623C4.53939 12.3911 3.47653 10.6447 2.7179 10.922Z" fill="url(#paint0_linear_59_6599)"/>
<path d="M2.83889 8.02019C0.720868 10.2961 5.03777 16.0301 9.70703 15.2677C14.2781 14.5244 15.4469 8.00286 14.1356 6.27764C12.7146 4.40031 5.06473 5.63068 2.83889 8.02019Z" fill="url(#paint1_radial_59_6599)"/>
<path style="mix-blend-mode:screen" opacity="0.8" d="M2.8397 8.0202C0.898831 10.3982 5.03859 16.0302 9.70785 15.2677C14.2789 14.5244 15.4477 8.00287 14.1364 6.27765C12.7154 4.40032 4.73052 5.70386 2.8397 8.0202Z" fill="url(#paint2_linear_59_6599)"/>
<path style="mix-blend-mode:multiply" d="M9.81796 11.3628C9.24032 11.3109 8.63764 10.4232 8.5741 8.69222C8.51056 6.96122 10.1145 7.84309 10.6016 9.26986C10.748 9.65434 10.7492 10.079 10.605 10.4643C10.4607 10.8496 10.1809 11.1691 9.81796 11.3628V11.3628Z" fill="url(#paint3_linear_59_6599)"/>
<path style="mix-blend-mode:multiply" d="M14.35 10.4309C14.1575 10.6023 13.4027 9.40656 13.7724 7.7468C14.1421 6.08705 14.61 7.67748 14.61 7.67748C14.7242 8.60328 14.6355 9.54284 14.35 10.4309V10.4309Z" fill="url(#paint4_linear_59_6599)"/>
<path style="mix-blend-mode:multiply" d="M11.7971 13.1073C11.1309 13.2382 10.7669 10.8179 12.6635 10.2191C14.5601 9.62027 13.4722 12.78 11.7971 13.1073Z" fill="url(#paint5_linear_59_6599)"/>
<path style="mix-blend-mode:multiply" d="M9.59301 14.7439C8.57444 14.973 7.54816 13.3152 8.55325 12.6625C9.40238 12.1079 11.2624 14.3646 9.59301 14.7439Z" fill="url(#paint6_linear_59_6599)"/>
<path style="mix-blend-mode:multiply" d="M7.56351 15.1002C7.29779 15.1984 5.92493 14.8018 5.44549 13.8256C4.96605 12.8494 6.42364 13.323 7.12643 13.9892C7.82923 14.6554 7.70984 15.0463 7.56351 15.1002Z" fill="url(#paint7_linear_59_6599)"/>
<path style="mix-blend-mode:multiply" d="M6.10283 11.9732C4.73574 12.0714 3.85002 10.6773 4.12536 9.71267C4.38723 8.79037 6.06817 8.59782 6.77481 10.0381C7.30432 11.1125 6.40512 11.952 6.10283 11.9732Z" fill="url(#paint8_linear_59_6599)"/>
<path d="M4.99901 10.1421C4.39248 10.3636 4.999 11.7518 5.90975 11.6825C6.8205 11.6132 5.75572 9.86295 4.99901 10.1421Z" fill="url(#paint9_linear_59_6599)"/>
<path d="M12.5303 10.7313C11.7601 10.5753 11.3423 11.8192 11.7986 12.0791C12.2549 12.3391 13.0194 10.8314 12.5303 10.7313Z" fill="url(#paint10_linear_59_6599)"/>
<path d="M9.06606 12.9551C8.47494 13.0784 8.91973 14.2221 9.6437 14.2009C10.3677 14.1797 9.76693 12.8107 9.06606 12.9551Z" fill="url(#paint11_linear_59_6599)"/>
<path style="mix-blend-mode:multiply" d="M11.009 14.8691C10.672 14.665 11.0475 13.7658 12.0064 13.2652C12.9653 12.7645 12.9306 13.321 12.9306 13.321C12.9306 13.321 12.0276 14.5225 11.009 14.8691Z" fill="url(#paint12_linear_59_6599)"/>
<path d="M6.09825 14.0816C6.04048 14.3993 6.70477 14.8518 7.25353 14.8017C7.63862 14.7709 7.1149 14.0315 6.62005 13.8486C6.5708 13.8268 6.51752 13.8156 6.46367 13.8157C6.40982 13.8158 6.35659 13.8272 6.30741 13.8492C6.25824 13.8711 6.21421 13.9032 6.17819 13.9432C6.14216 13.9832 6.11493 14.0304 6.09825 14.0816Z" fill="url(#paint13_linear_59_6599)"/>
<path d="M11.404 14.6593C10.9997 14.7132 11.4637 13.7505 12.2416 13.4771C13.0195 13.2037 11.7429 14.615 11.404 14.6593Z" fill="url(#paint14_linear_59_6599)"/>
<path d="M8.76496 15.2253C8.32018 14.9345 9.93373 15.0712 9.98571 15.206C10.0377 15.3408 9.54093 15.7394 8.76496 15.2253Z" fill="url(#paint15_linear_59_6599)"/>
<path d="M9.66113 9.25631C8.66759 9.61445 9.23753 10.7794 9.79014 11.0605C10.3427 11.3416 10.9108 8.8096 9.66113 9.25631Z" fill="url(#paint16_linear_59_6599)"/>
<path d="M14.377 8.25519C14.0728 8.25519 13.8494 9.64923 14.2961 9.9342C14.7428 10.2192 15.0124 8.25134 14.377 8.25519Z" fill="url(#paint17_linear_59_6599)"/>
<g style="mix-blend-mode:multiply" opacity="0.5">
<path d="M2.4453 10.5425C2.8304 11.3801 4.80785 8.88658 5.38164 8.2608C5.95543 7.63502 6.09599 7.65621 6.09599 7.65621C6.09599 7.65621 5.734 8.91546 7.10109 10.3211C7.90786 11.1509 8.78202 11.563 9.02656 11.434C9.27109 11.305 10.9905 9.44882 10.8172 8.15875C10.644 6.86869 9.85451 6.27564 9.85451 6.27564C10.6163 6.42804 11.3888 6.52074 12.1651 6.55291C13.4494 6.60682 13.898 6.02148 13.898 6.02148C13.898 6.02148 11.6953 4.06713 8.34493 5.03372C4.99462 6.0003 2.37598 10.192 2.37598 10.192L2.4453 10.5425Z" fill="#790068"/>
</g>
<path d="M11.0938 5.19555C10.9461 5.26496 10.7944 5.32541 10.6394 5.37655C9.73982 5.64507 8.79975 5.75198 7.86286 5.69232L7.42578 5.30723C8.42703 5.12431 8.61764 3.89201 9.55342 3.2489C10.6028 2.52877 11.837 2.44213 12.6477 2.51145C12.946 2.51793 13.2405 2.57997 13.516 2.69437C13.6624 2.8176 12.4647 4.54667 11.0938 5.19555Z" fill="url(#paint18_linear_59_6599)"/>
<g style="mix-blend-mode:multiply" opacity="0.5">
<path d="M11.0607 5.23218C10.913 5.30159 10.7612 5.36203 10.6063 5.41317C10.1054 5.46433 9.60148 5.47785 9.09863 5.45361C12.2834 4.6969 13.2249 3.03329 13.1825 2.79261C13.1402 2.55192 12.6569 2.55192 12.6184 2.5423C12.9164 2.55106 13.2105 2.613 13.4868 2.72521C13.6293 2.85422 12.4297 4.5833 11.0607 5.23218Z" fill="#C46F81"/>
</g>
<path d="M14.9968 5.52864C14.9294 5.69038 13.4083 6.39895 11.7235 6.191C10.0965 5.99845 8.95273 5.73852 8.88534 5.72311L8.94504 5.74622C9.23771 5.86367 10.4469 6.36429 10.6086 6.80715C10.6973 7.04395 10.7618 7.28908 10.8012 7.53883C10.8012 7.53883 10.8012 7.53883 10.8012 7.54846C11.0534 9.12735 10.1658 10.2191 9.92895 10.3115C8.59653 10.8256 5.90857 8.7461 6.08764 7.65629C6.08764 7.6197 6.10111 7.58312 6.10882 7.54846L6.1454 7.41945V7.40019C6.43422 6.47212 7.34883 5.97728 6.79044 6.18908L6.75 6.26032L6.73075 6.29305C6.71727 6.3123 6.70379 6.33734 6.68646 6.36622C6.37848 6.80931 6.04278 7.23248 5.68137 7.63318C4.7995 8.63828 1.95943 10.5406 1.80732 10.4405C1.73539 10.317 1.69258 10.1787 1.68216 10.0362C1.55316 9.31604 1.53005 7.9066 2.09036 7.25771C2.44078 6.82617 2.91747 6.51511 3.4536 6.36815C3.4536 6.36815 3.4536 6.36815 3.4536 6.36815C3.31304 6.42206 0.883088 6.81678 1.00439 6.56069C1.03927 6.50585 1.08065 6.45542 1.12763 6.41051V6.41051C1.99124 5.60242 3.04498 5.02555 4.19106 4.73342C5.80267 4.38491 6.47466 5.6615 8.042 5.25522C9.60933 4.84895 9.77492 3.6128 11.5078 3.61665C13.2408 3.6205 14.2651 4.70839 14.7927 5.24752C14.9487 5.38615 15.016 5.48436 14.9968 5.52864Z" fill="url(#paint19_linear_59_6599)"/>
<path d="M7.06211 5.47661C7.52808 5.33798 5.50056 3.60506 5.4428 2.63269C5.38503 1.66033 7.13913 0.865111 7.97286 1.07884C8.80659 1.29257 8.27708 4.42531 8.74305 5.19549C8.73919 5.19549 8.36566 6.08506 7.06211 5.47661Z" fill="url(#paint20_linear_59_6599)"/>
<path d="M5.45452 2.44791C5.22732 3.05443 6.67719 2.95045 7.49744 2.49412C8.31769 2.03778 8.32924 1.412 8.10781 1.14629C7.88638 0.880573 6.06875 0.807406 5.45452 2.44791Z" fill="url(#paint21_linear_59_6599)"/>
<path d="M5.87208 2.29001C5.7142 2.70976 6.71929 2.63851 7.2873 2.32274C7.85531 2.00696 7.86494 1.5718 7.70898 1.39081C7.55302 1.20981 6.29761 1.15398 5.87208 2.29001Z" fill="#C3B336"/>
<g style="mix-blend-mode:multiply" opacity="0.5">
<path d="M6.93222 5.79053C6.93222 5.79053 4.83923 5.89065 3.48755 6.36817H3.47214C3.33158 6.42208 0.901643 6.8168 1.02295 6.56071C1.05783 6.50587 1.0992 6.45544 1.14618 6.41053C1.15581 6.63003 2.89643 6.36046 3.93618 5.99463C5.35141 5.50363 6.93222 5.79053 6.93222 5.79053Z" fill="#C46F81"/>
</g>
<g style="mix-blend-mode:multiply" opacity="0.5">
<path d="M6.80358 6.18915L6.76315 6.26039C6.75618 6.27097 6.74975 6.28189 6.74389 6.29312C6.73041 6.31237 6.71694 6.33741 6.69961 6.36629C6.39163 6.80938 6.05593 7.23255 5.69452 7.63325C4.81265 8.63835 1.97258 10.5407 1.82047 10.4406C1.74854 10.3171 1.70574 10.1788 1.69531 10.0362C1.99376 10.5292 4.31587 7.93362 5.04755 7.19232C5.54525 6.72366 6.14709 6.37984 6.80358 6.18915V6.18915Z" fill="#C46F81"/>
</g>
<g style="mix-blend-mode:multiply" opacity="0.5">
<path d="M14.9972 5.5287C14.9298 5.69044 13.4087 6.39901 11.7239 6.19106C10.0969 5.99851 8.95313 5.73858 8.88574 5.72317C8.98993 5.60298 9.11731 5.50505 9.26024 5.43524C9.40316 5.36543 9.5587 5.32518 9.71755 5.3169C10.2682 5.3169 11.4505 5.99081 13.1834 5.68659C14.8027 5.39969 14.8239 5.26491 14.82 5.25336C14.949 5.38621 15.0164 5.48442 14.9972 5.5287Z" fill="#C46F81"/>
</g>
<g style="mix-blend-mode:multiply" opacity="0.5">
<path d="M10.8168 7.54847C11.069 9.12736 10.1814 10.2191 9.94455 10.3115C8.61213 10.8256 5.92418 8.74611 6.10325 7.6563C6.10325 7.61971 6.11672 7.58313 6.12443 7.54847L6.16101 7.41946V7.40021C6.18026 8.16077 7.07368 9.97264 9.72313 9.8186C9.7212 9.8186 11.0228 9.25636 10.8168 7.54847Z" fill="#C46F81"/>
</g>
<g style="mix-blend-mode:multiply" opacity="0.5">
<path d="M7.78415 5.51133C7.48378 5.42276 5.85868 3.63593 5.77396 3.3317C5.68924 3.02748 6.84067 2.77139 7.41061 2.85226C7.98055 2.93313 8.52161 5.16282 8.37335 5.43624C8.22509 5.70966 7.78415 5.51133 7.78415 5.51133Z" fill="#AEB1BA"/>
</g>
<g style="mix-blend-mode:soft-light">
<path d="M5.47049 5.92725C5.22018 5.96383 5.43006 6.49334 6.13864 6.33353C6.84721 6.17371 6.98199 6.1506 6.98199 6.1506C6.75442 6.36714 6.60654 6.65409 6.56224 6.96508C6.48907 7.48303 8.05448 7.27315 8.9864 6.84762C9.91833 6.42209 8.95752 5.94073 8.89206 5.72315C8.82659 5.50557 9.67765 5.23793 9.95685 5.06464C10.236 4.89135 10.2668 3.90936 10.1494 3.996C10.0319 4.08265 8.97101 4.83358 8.80157 4.95874C8.63212 5.08389 8.90169 5.45359 7.99287 5.69042C7.08404 5.92725 7.01665 5.8252 7.01665 5.8252C7.01665 5.8252 5.87099 5.80402 5.47049 5.92725Z" fill="#A4954F"/>
</g>
<g style="mix-blend-mode:soft-light">
<path d="M4.80891 4.67761C4.09841 4.92022 4.79544 5.68271 5.74085 5.66345C6.68625 5.6442 7.20034 5.61532 7.20034 5.61532C7.20034 5.61532 5.77742 4.73153 4.80891 4.67761Z" fill="#A4954F"/>
</g>
<g style="mix-blend-mode:soft-light">
<path d="M8.7204 4.93947C8.8186 5.0396 10.1607 3.78419 10.3243 3.48189C10.488 3.1796 9.71588 3.23543 9.196 3.55121C8.67612 3.86699 8.5914 4.80661 8.7204 4.93947Z" fill="#A4954F"/>
</g>
<path style="mix-blend-mode:screen" opacity="0.73" d="M11.339 11.567C11.1908 12.1812 10.5323 10.6601 10.8885 9.4971C11.2447 8.33411 11.4661 7.67368 11.0483 6.85535C10.6305 6.03703 13.2453 6.73405 13.6092 6.58001C13.9731 6.42597 13.3319 7.9933 13.4782 8.95411C13.6246 9.91492 14.1907 10.2923 14.1098 10.4945C14.0289 10.6967 13.6438 9.66847 12.6387 10.0093C11.6336 10.3501 11.3718 11.4341 11.339 11.567Z" fill="url(#paint22_radial_59_6599)"/>
<g style="mix-blend-mode:multiply" opacity="0.5">
<path d="M2.76854 10.5523C2.90717 10.0459 4.15294 12.3314 4.55344 13.0554C4.77386 13.4746 5.08981 13.836 5.47575 14.1105C5.47575 14.1105 4.87115 13.5464 5.47575 13.0958C6.08035 12.6452 7.62072 14.3416 7.89991 14.7267C8.1791 15.1118 7.76128 15.2234 7.76128 15.2234H8.76446C8.76446 15.2234 8.34084 15.0174 8.68358 14.8499C9.02631 14.6824 7.95768 14.3377 7.89799 13.117C7.8383 11.8962 9.01668 12.5393 9.10526 12.2987C9.19383 12.058 8.77986 10.5946 8.28309 10.3135C7.78632 10.0324 6.0842 8.79238 6.1227 8.83474C6.16121 8.8771 7.16823 9.26604 7.18941 10.7178C7.21059 12.1697 5.04059 12.5297 4.2704 11.5381C3.50022 10.5465 4.00276 9.64922 4.09903 9.28915C4.19531 8.92909 2.54711 9.84561 2.76854 10.5523Z" fill="#E00E5E"/>
</g>
<g style="mix-blend-mode:soft-light">
<path d="M12.3805 7.6043C11.9819 7.97976 12.4864 8.70566 12.8503 8.29168C13.2142 7.87771 12.7136 7.28659 12.3805 7.6043Z" fill="#FFD48D"/>
</g>
<g style="mix-blend-mode:soft-light">
<path d="M10.4317 12.0502C10.1371 12.1888 10.2392 13.3537 10.5145 13.6733C10.7899 13.993 11.5947 13.4018 11.2096 12.5643C10.8245 11.7267 10.5184 12.0097 10.4317 12.0502Z" fill="#FF7C00"/>
</g>
<path d="M8.96327 13.1073C8.87855 13.2998 9.24246 13.2151 9.94141 13.8525C9.97607 13.2998 9.17892 12.6413 8.96327 13.1073Z" fill="#FFA911"/>
<path d="M11.8128 11.6151C11.6934 12.081 12.3731 12.1927 12.6253 11.3493C12.8776 10.506 12.0111 10.8487 11.8128 11.6151Z" fill="#FFA911"/>
<path d="M11.2876 14.3761C11.251 14.7227 11.8961 14.4782 12.2369 13.8659C12.5777 13.2536 11.64 13.5597 11.2876 14.3761Z" fill="#FFA911"/>
<g style="mix-blend-mode:multiply" opacity="0.5">
<path d="M6.13435 14.124C5.96876 14.2376 6.36156 14.6073 6.81212 14.7401C6.99031 14.8067 7.18654 14.8067 7.36473 14.7401C7.36473 14.7401 6.59261 13.9892 6.13435 14.124Z" fill="#E00E5E"/>
</g>
<path d="M14.3778 8.25508C14.0736 8.38794 14.0601 9.42384 14.3932 9.7608C14.7263 10.0978 14.8226 9.04452 14.7783 8.69987C14.734 8.35521 14.4625 8.21657 14.3778 8.25508Z" fill="#FFA911"/>
<g style="mix-blend-mode:multiply" opacity="0.5">
<path d="M4.79252 10.3327C4.25724 10.5869 5.26426 11.8 5.96514 11.6652C6.66601 11.5304 5.32395 10.0805 4.79252 10.3327Z" fill="#E00E5E"/>
</g>
<g style="mix-blend-mode:multiply" opacity="0.5">
<path d="M8.85759 15.2889C8.84411 15.2081 9.66243 15.3063 9.82032 15.339C9.97821 15.3717 9.36784 15.6625 8.85759 15.2889Z" fill="#E00E5E"/>
</g>
<g style="mix-blend-mode:multiply" opacity="0.5">
<path d="M2.47559 11.3744C2.66803 11.5328 2.8372 11.7175 2.97813 11.9231C3.10212 12.0778 3.20867 12.2457 3.29584 12.4238C3.07243 12.3467 2.87612 12.2065 2.73057 12.0203C2.58503 11.8341 2.49647 11.6098 2.47559 11.3744V11.3744Z" fill="#E00E5E"/>
</g>
<g style="mix-blend-mode:multiply" opacity="0.5">
<path d="M1.69531 10.0362C1.69531 10.0362 2.41351 7.66213 3.46289 6.95549C4.51227 6.24884 5.1111 6.41636 5.19582 6.54537C5.28054 6.67437 4.20805 7.89319 3.46289 8.85593C3.01321 9.42624 2.39441 9.83944 1.69531 10.0362V10.0362Z" fill="#DBDCE0"/>
</g>
<g style="mix-blend-mode:multiply" opacity="0.5">
<path d="M9.72016 9.81864C9.51028 9.94572 7.48469 8.36491 8.02767 7.68714C8.27752 7.38658 8.59033 7.14456 8.94401 6.9782C9.29769 6.81185 9.6836 6.72521 10.0744 6.72441C10.8023 6.69552 11.3279 8.87131 9.72016 9.81864Z" fill="#DBDCE0"/>
</g>
<g style="mix-blend-mode:multiply" opacity="0.5">
<path d="M10.0996 5.24559C10.1381 4.76615 11.665 4.05565 12.7722 4.3541C13.0846 4.42811 13.379 4.56427 13.6376 4.75449C13.8963 4.9447 14.1141 5.18507 14.2779 5.46125C12.8977 5.83635 11.4338 5.76079 10.0996 5.24559Z" fill="#DBDCE0"/>
</g>
<g style="mix-blend-mode:multiply" opacity="0.3">
<path d="M2.15137 10.3077C2.41131 10.1556 3.61665 8.70576 4.21932 7.99719C4.82199 7.28861 6.11783 7.13843 6.11783 7.13843C5.48219 7.8741 4.76299 8.53321 3.97478 9.10241C2.78292 9.92459 2.15137 10.3077 2.15137 10.3077Z" fill="#790068"/>
</g>
<g style="mix-blend-mode:multiply" opacity="0.3">
<path d="M6.30664 8.41498C6.69693 8.82934 7.15218 9.17729 7.65447 9.44511C8.37267 9.79169 9.41049 9.85523 9.59534 9.90722C9.78018 9.95921 9.88801 10.3347 9.88801 10.3347C9.88801 10.3347 7.86242 10.5715 6.30664 8.41498Z" fill="#790068"/>
</g>
<g style="mix-blend-mode:soft-light">
<path d="M2.62617 11.126C2.60884 10.843 3.78145 12.1966 4.55164 13.0611C5.32182 13.9257 6.13437 14.6689 6.13437 14.6689C6.13437 14.6689 3.44642 13.2883 2.62617 11.126Z" fill="#FF6FFF"/>
</g>
<g style="mix-blend-mode:multiply" opacity="0.3">
<path d="M7.44817 8.93485C7.92569 9.06964 8.41091 8.97144 8.34929 8.61138C8.27997 8.182 8.31271 7.6679 7.85637 7.59666L7.60799 7.55237C7.20942 7.48498 6.79736 7.44647 6.7473 7.96442C6.72186 8.1378 6.75056 8.3148 6.82948 8.47126C6.9084 8.62771 7.03369 8.75599 7.18824 8.83858C7.27177 8.87854 7.35877 8.91076 7.44817 8.93485V8.93485Z" fill="#A4893B"/>
</g>
<g style="mix-blend-mode:multiply">
<path d="M7.44817 8.93474H7.50979C7.30392 8.88802 7.11839 8.7767 6.98028 8.61704C6.89591 8.4921 6.85628 8.3423 6.86782 8.19199C6.87935 8.04168 6.94138 7.89968 7.04383 7.78909C7.11391 7.70938 7.20096 7.64638 7.29859 7.60473C7.39622 7.56308 7.50195 7.54383 7.60799 7.5484C7.20942 7.48101 6.79736 7.4425 6.7473 7.96045C6.72186 8.13383 6.75056 8.31083 6.82948 8.46729C6.9084 8.62375 7.03369 8.75203 7.18824 8.83461C7.27163 8.87589 7.35864 8.9094 7.44817 8.93474V8.93474Z" fill="#A4893B"/>
</g>
<path d="M10.5098 5.49205C11.2307 5.6157 11.9621 5.66794 12.6932 5.64801C13.2712 5.61164 13.8462 5.53767 14.4146 5.42657C13.8022 5.61672 13.1682 5.72864 12.5277 5.75968C11.8439 5.80498 11.158 5.71401 10.5098 5.49205V5.49205Z" fill="#72791D"/>
<path d="M2.30371 9.861C2.4693 9.70118 2.71962 8.89826 3.10086 8.51317C3.4821 8.12807 4.34086 7.87006 4.34086 7.87006C4.18809 8.25359 3.96177 8.60354 3.67464 8.90018C3.26745 9.28619 2.80549 9.60995 2.30371 9.861Z" fill="#405C1D"/>
<path d="M7.49609 9.36414C7.49609 9.36414 8.45883 9.43731 8.82275 9.43346C9.18666 9.4296 9.72001 9.81855 9.72001 9.81855C8.95348 9.84172 8.19209 9.68615 7.49609 9.36414Z" fill="#577E1D"/>
<path d="M6.77246 2.77332C6.98811 2.70785 8.12029 1.88953 8.12029 1.88953C8.12029 1.88953 8.34364 3.47996 6.77246 2.77332Z" fill="#577E1D"/>
<path d="M12.6611 3.63591C12.6996 3.44691 12.7537 3.26142 12.8229 3.08138C12.927 2.98777 13.047 2.91345 13.1772 2.86188C13.1772 2.86188 13.3832 3.40293 12.6611 3.63591Z" fill="#4A740B"/>
<g style="mix-blend-mode:multiply" opacity="0.3">
<path d="M2.61672 9.28915C2.50697 9.54331 3.40039 9.16399 3.64685 8.79622C3.7906 8.58967 3.88602 8.35342 3.92605 8.10498C3.92605 8.10498 3.07305 8.22822 2.61672 9.28915Z" fill="#790068"/>
</g>
<path d="M2.42188 9.77243C2.82436 9.51244 3.2102 9.22756 3.57716 8.91945C3.82081 8.68319 4.03306 8.41657 4.20871 8.12616C4.05545 8.55348 3.8065 8.94009 3.48088 9.25641C3.19504 9.54133 2.82242 9.7229 2.42188 9.77243Z" fill="#577E1D"/>
<path d="M8.41504 14.1933C8.4761 14.366 8.58515 14.5177 8.72942 14.6306C8.87369 14.7435 9.04718 14.8129 9.22951 14.8306C9.9997 14.9346 10.146 14.4455 10.173 14.3935C10.1999 14.3416 10.0093 14.7671 9.33926 14.7209C9.15373 14.7156 8.97236 14.6647 8.81117 14.5727C8.64998 14.4807 8.51393 14.3504 8.41504 14.1933V14.1933Z" fill="#FF984C"/>
<path d="M4.55517 11.3109C4.53399 11.2858 4.73424 12.0811 5.78169 12.1138C6.82915 12.1465 6.80412 11.2955 6.80412 11.2955C6.80412 11.2955 6.75213 11.8153 5.96461 11.8981C5.1771 11.9809 4.55517 11.3109 4.55517 11.3109Z" fill="#FF5460"/>
<path d="M11.261 12.2448C11.261 12.2448 11.2611 12.9167 11.6866 13.0015C12.2334 13.1112 12.7918 12.5509 12.7918 12.5509C12.7918 12.5509 12.2334 13.1748 11.7078 13.1285C11.1821 13.0823 11.261 12.2448 11.261 12.2448Z" fill="#FF984C"/>
<path d="M9.38379 11.1626C9.52985 11.2754 9.70607 11.3424 9.89019 11.3552C10.1963 11.3244 10.3273 10.9316 10.3273 10.9316C10.3273 10.9316 10.2137 11.4091 9.94218 11.4361C9.67069 11.463 9.38379 11.1626 9.38379 11.1626Z" fill="#FF6860"/>
<path d="M6.32324 14.7247C6.32324 14.7247 6.9856 15.1503 7.52666 15.1098C8.06772 15.0694 7.93679 14.7863 7.93679 14.7863C7.93679 14.7863 8.1563 15.156 7.76157 15.2292C7.36685 15.3024 6.5466 14.873 6.32324 14.7247Z" fill="#FF984C"/>
<g style="mix-blend-mode:multiply" opacity="0.5">
<path d="M8.15356 13.269C8.25561 13.7773 8.67343 13.916 8.79089 13.889C8.90834 13.862 8.56946 13.3422 8.96226 13.0996C9.35505 12.8569 9.97505 13.4962 9.97505 13.4962C9.90163 13.2986 9.78763 13.1185 9.64039 12.9676C9.49314 12.8167 9.31592 12.6984 9.12015 12.6201C8.45586 12.3583 8.12082 13.1169 8.15356 13.269Z" fill="#AF0068"/>
</g>
<g style="mix-blend-mode:multiply" opacity="0.5">
<path d="M11.3379 11.567C11.3379 11.567 11.8193 10.9142 12.4624 10.8545C13.1055 10.7949 13.0169 11.5766 13.196 11.6729C13.375 11.7691 13.9142 10.9354 13.5098 10.3039C13.1055 9.67231 11.6768 10.4386 11.3379 11.567Z" fill="#AF0068"/>
</g>
<g style="mix-blend-mode:multiply" opacity="0.5">
<path d="M5.61899 14.1085C5.75955 14.276 5.75378 14.0449 6.26017 13.9256C6.76657 13.8062 7.41546 14.3107 7.41546 14.3107C7.41546 14.3107 6.73576 13.4923 6.00408 13.3325C5.27241 13.1727 5.27818 13.6425 5.61899 14.1085Z" fill="#AF0068"/>
</g>
<g style="mix-blend-mode:multiply" opacity="0.5">
<path d="M4.07716 10.0016C4.07716 10.612 4.06176 10.377 5.19009 10.067C5.49559 9.97191 5.82219 9.96787 6.12995 10.0554C6.43772 10.143 6.71331 10.3183 6.92301 10.56C6.92301 10.56 6.6804 9.32767 5.67145 9.08121C4.66251 8.83474 4.07716 9.43549 4.07716 10.0016Z" fill="#AF0068"/>
</g>
<defs>
<linearGradient id="paint0_linear_59_6599" x1="3.59893" y1="12.9231" x2="3.24027" y2="11.2494" gradientUnits="userSpaceOnUse">
<stop stop-color="#EA5700"/>
<stop offset="0.3" stop-color="#F26E0B"/>
<stop offset="0.74" stop-color="#FB8918"/>
<stop offset="1" stop-color="#FF931D"/>
</linearGradient>
<radialGradient id="paint1_radial_59_6599" cx="0" cy="0" r="1" gradientUnits="userSpaceOnUse" gradientTransform="translate(11.2594 9.74118) rotate(-12.0948) scale(10.2742 8.38407)">
<stop stop-color="#AC0E00"/>
<stop offset="0.21" stop-color="#AA0D05"/>
<stop offset="0.47" stop-color="#A20B15"/>
<stop offset="0.76" stop-color="#97082E"/>
<stop offset="0.9" stop-color="#90063C"/>
<stop offset="1" stop-color="#BD007E"/>
</radialGradient>
<linearGradient id="paint2_linear_59_6599" x1="10.0995" y1="15.6629" x2="8.0563" y2="6.1281" gradientUnits="userSpaceOnUse">
<stop stop-color="#FF7900"/>
<stop offset="0.02" stop-color="#F66E00"/>
<stop offset="0.17" stop-color="#C53300"/>
<stop offset="0.28" stop-color="#A60E00"/>
<stop offset="0.33" stop-color="#9A0000"/>
<stop offset="0.36" stop-color="#860000"/>
<stop offset="0.41" stop-color="#620000"/>
<stop offset="0.47" stop-color="#440000"/>
<stop offset="0.54" stop-color="#2B0000"/>
<stop offset="0.61" stop-color="#180000"/>
<stop offset="0.69" stop-color="#0A0000"/>
<stop offset="0.8" stop-color="#020000"/>
<stop offset="1"/>
</linearGradient>
<linearGradient id="paint3_linear_59_6599" x1="10.2621" y1="11.7323" x2="9.48374" y2="8.09987" gradientUnits="userSpaceOnUse">
<stop stop-color="white"/>
<stop offset="0.1" stop-color="#F8D6D0"/>
<stop offset="0.23" stop-color="#EFA79A"/>
<stop offset="0.36" stop-color="#E77D6B"/>
<stop offset="0.49" stop-color="#E15C44"/>
<stop offset="0.62" stop-color="#DC4226"/>
<stop offset="0.75" stop-color="#D92F11"/>
<stop offset="0.87" stop-color="#D72404"/>
<stop offset="0.99" stop-color="#D62000"/>
</linearGradient>
<linearGradient id="paint4_linear_59_6599" x1="14.8067" y1="10.8195" x2="14.0893" y2="7.47204" gradientUnits="userSpaceOnUse">
<stop stop-color="white"/>
<stop offset="0.1" stop-color="#F8D6D0"/>
<stop offset="0.23" stop-color="#EFA79A"/>
<stop offset="0.36" stop-color="#E77D6B"/>
<stop offset="0.49" stop-color="#E15C44"/>
<stop offset="0.62" stop-color="#DC4226"/>
<stop offset="0.75" stop-color="#D92F11"/>
<stop offset="0.87" stop-color="#D72404"/>
<stop offset="0.99" stop-color="#D62000"/>
</linearGradient>
<linearGradient id="paint5_linear_59_6599" x1="12.9797" y1="13.3263" x2="12.4245" y2="10.7355" gradientUnits="userSpaceOnUse">
<stop stop-color="white"/>
<stop offset="0.1" stop-color="#F8D6D0"/>
<stop offset="0.23" stop-color="#EFA79A"/>
<stop offset="0.36" stop-color="#E77D6B"/>
<stop offset="0.49" stop-color="#E15C44"/>
<stop offset="0.62" stop-color="#DC4226"/>
<stop offset="0.75" stop-color="#D92F11"/>
<stop offset="0.87" stop-color="#D72404"/>
<stop offset="0.99" stop-color="#D62000"/>
</linearGradient>
<linearGradient id="paint6_linear_59_6599" x1="9.01061" y1="14.7104" x2="9.41482" y2="12.6764" gradientUnits="userSpaceOnUse">
<stop stop-color="white"/>
<stop offset="0.1" stop-color="#F8D6D0"/>
<stop offset="0.23" stop-color="#EFA79A"/>
<stop offset="0.36" stop-color="#E77D6B"/>
<stop offset="0.49" stop-color="#E15C44"/>
<stop offset="0.62" stop-color="#DC4226"/>
<stop offset="0.75" stop-color="#D92F11"/>
<stop offset="0.87" stop-color="#D72404"/>
<stop offset="0.99" stop-color="#D62000"/>
</linearGradient>
<linearGradient id="paint7_linear_59_6599" x1="6.94803" y1="15.6986" x2="6.48384" y2="13.5323" gradientUnits="userSpaceOnUse">
<stop stop-color="white"/>
<stop offset="0.1" stop-color="#F8D6D0"/>
<stop offset="0.23" stop-color="#EFA79A"/>
<stop offset="0.36" stop-color="#E77D6B"/>
<stop offset="0.49" stop-color="#E15C44"/>
<stop offset="0.62" stop-color="#DC4226"/>
<stop offset="0.75" stop-color="#D92F11"/>
<stop offset="0.87" stop-color="#D72404"/>
<stop offset="0.99" stop-color="#D62000"/>
</linearGradient>
<linearGradient id="paint8_linear_59_6599" x1="6.06312" y1="12.4404" x2="5.40444" y2="9.3665" gradientUnits="userSpaceOnUse">
<stop stop-color="white"/>
<stop offset="0.1" stop-color="#F8D6D0"/>
<stop offset="0.23" stop-color="#EFA79A"/>
<stop offset="0.36" stop-color="#E77D6B"/>
<stop offset="0.49" stop-color="#E15C44"/>
<stop offset="0.62" stop-color="#DC4226"/>
<stop offset="0.75" stop-color="#D92F11"/>
<stop offset="0.87" stop-color="#D72404"/>
<stop offset="0.99" stop-color="#D62000"/>
</linearGradient>
<linearGradient id="paint9_linear_59_6599" x1="5.88486" y1="12.1454" x2="5.5262" y2="10.4717" gradientUnits="userSpaceOnUse">
<stop stop-color="#EA5700"/>
<stop offset="0.3" stop-color="#F26E0B"/>
<stop offset="0.74" stop-color="#FB8918"/>
<stop offset="1" stop-color="#FF931D"/>
</linearGradient>
<linearGradient id="paint10_linear_59_6599" x1="11.4354" y1="12.6822" x2="11.6241" y2="11.2449" gradientUnits="userSpaceOnUse">
<stop stop-color="#EA5700"/>
<stop offset="0.3" stop-color="#F26E0B"/>
<stop offset="0.74" stop-color="#FB8918"/>
<stop offset="1" stop-color="#FF931D"/>
</linearGradient>
<linearGradient id="paint11_linear_59_6599" x1="9.7301" y1="14.6603" x2="9.44706" y2="13.3395" gradientUnits="userSpaceOnUse">
<stop stop-color="#EA5700"/>
<stop offset="0.3" stop-color="#F26E0B"/>
<stop offset="0.74" stop-color="#FB8918"/>
<stop offset="1" stop-color="#FF931D"/>
</linearGradient>
<linearGradient id="paint12_linear_59_6599" x1="12.2643" y1="15.0746" x2="11.9622" y2="13.665" gradientUnits="userSpaceOnUse">
<stop stop-color="white"/>
<stop offset="0.1" stop-color="#F8D6D0"/>
<stop offset="0.23" stop-color="#EFA79A"/>
<stop offset="0.36" stop-color="#E77D6B"/>
<stop offset="0.49" stop-color="#E15C44"/>
<stop offset="0.62" stop-color="#DC4226"/>
<stop offset="0.75" stop-color="#D92F11"/>
<stop offset="0.87" stop-color="#D72404"/>
<stop offset="0.99" stop-color="#D62000"/>
</linearGradient>
<linearGradient id="paint13_linear_59_6599" x1="7.04878" y1="15.3122" x2="6.8094" y2="14.1951" gradientUnits="userSpaceOnUse">
<stop stop-color="#EA5700"/>
<stop offset="0.3" stop-color="#F26E0B"/>
<stop offset="0.74" stop-color="#FB8918"/>
<stop offset="1" stop-color="#FF931D"/>
</linearGradient>
<linearGradient id="paint14_linear_59_6599" x1="12.1923" y1="14.9678" x2="11.9853" y2="14.0017" gradientUnits="userSpaceOnUse">
<stop stop-color="#EA5700"/>
<stop offset="0.3" stop-color="#F26E0B"/>
<stop offset="0.74" stop-color="#FB8918"/>
<stop offset="1" stop-color="#FF931D"/>
</linearGradient>
<linearGradient id="paint15_linear_59_6599" x1="9.61494" y1="15.95" x2="9.49647" y2="15.3971" gradientUnits="userSpaceOnUse">
<stop stop-color="#EA5700"/>
<stop offset="0.3" stop-color="#F26E0B"/>
<stop offset="0.74" stop-color="#FB8918"/>
<stop offset="1" stop-color="#FF931D"/>
</linearGradient>
<linearGradient id="paint16_linear_59_6599" x1="9.47228" y1="10.9606" x2="10.0411" y2="9.21399" gradientUnits="userSpaceOnUse">
<stop stop-color="#EA5700"/>
<stop offset="0.3" stop-color="#F26E0B"/>
<stop offset="0.74" stop-color="#FB8918"/>
<stop offset="1" stop-color="#FF931D"/>
</linearGradient>
<linearGradient id="paint17_linear_59_6599" x1="14.807" y1="10.3517" x2="14.4553" y2="8.71009" gradientUnits="userSpaceOnUse">
<stop stop-color="#EA5700"/>
<stop offset="0.3" stop-color="#F26E0B"/>
<stop offset="0.74" stop-color="#FB8918"/>
<stop offset="1" stop-color="#FF931D"/>
</linearGradient>
<linearGradient id="paint18_linear_59_6599" x1="7.53754" y1="5.17345" x2="13.923" y2="3.80513" gradientUnits="userSpaceOnUse">
<stop stop-color="#305000"/>
<stop offset="0.49" stop-color="#345500"/>
<stop offset="0.98" stop-color="#3C6100"/>
</linearGradient>
<linearGradient id="paint19_linear_59_6599" x1="9.16335" y1="10.9551" x2="7.76187" y2="4.41487" gradientUnits="userSpaceOnUse">
<stop stop-color="#3E6F4C"/>
<stop offset="1" stop-color="#566E00"/>
</linearGradient>
<linearGradient id="paint20_linear_59_6599" x1="7.90938" y1="6.16148" x2="6.93126" y2="1.59693" gradientUnits="userSpaceOnUse">
<stop stop-color="#3E6F4C"/>
<stop offset="1" stop-color="#566E00"/>
</linearGradient>
<linearGradient id="paint21_linear_59_6599" x1="7.21461" y1="3.12111" x2="6.87415" y2="1.53229" gradientUnits="userSpaceOnUse">
<stop stop-color="#6B924C"/>
<stop offset="1" stop-color="#A29A00"/>
</linearGradient>
<radialGradient id="paint22_radial_59_6599" cx="0" cy="0" r="1" gradientUnits="userSpaceOnUse" gradientTransform="translate(12.531 9.28828) rotate(-12.0948) scale(3.9638 3.9638)">
<stop stop-color="#FF747C"/>
<stop offset="1"/>
</radialGradient>
</defs>
</svg>
